# xmcd
#
# Track frame offsets:
#	150
#	16324
#	38620
#	56494
#	77227
#	97732
#	113435
#	138049
#
# Disc length: 2129 seconds
#
# Revision: 0
# Processed by: cddbd v1.5.2PL0 Copyright (c) Steve Scherf et al.
# Submitted via: audiograbber 1.83.01
#
DISCID=4e084f08
DTITLE=The Jones Girls - The Jones Girls
DYEAR=1979
DGENRE=Soul
TTITLE0=This feeling is killing me
TTITLE1=You made me love you
TTITLE2=Show love today
TTITLE3=You gonna make me love somebody else
TTITLE4=Life goes on
TTITLE5=Who can I run to?
TTITLE6=We're a melody
TTITLE7=At your mercy
EXTD=
EXTT0=
EXTT1=
EXTT2=
EXTT3=
EXTT4=
EXTT5=
EXTT6=
EXTT7=
PLAYORDER=
